<svg width="24" height="25" viewBox="0 0 24 25" fill="none" xmlns="http://www.w3.org/2000/svg">
<path fill-rule="evenodd" clip-rule="evenodd" d="M11.9728 20.8681C8.7338 20.8681 5.9668 20.3781 5.9668 18.4161C5.9668 16.4541 8.7158 14.7461 11.9728 14.7461C15.2118 14.7461 17.9788 16.4381 17.9788 18.3991C17.9788 20.3601 15.2298 20.8681 11.9728 20.8681Z" stroke="#212121" stroke-width="1.5" stroke-linecap="round" stroke-linejoin="round"/>
<path fill-rule="evenodd" clip-rule="evenodd" d="M11.9731 11.949C14.0991 11.949 15.8231 10.226 15.8231 8.1C15.8231 5.974 14.0991 4.25 11.9731 4.25C9.84706 4.25 8.12306 5.974 8.12306 8.1C8.11706 10.218 9.82706 11.942 11.9461 11.949H11.9731Z" stroke="#212121" stroke-width="1.5" stroke-linecap="round" stroke-linejoin="round"/>
<path d="M18.3623 10.892C19.5993 10.561 20.5113 9.43302 20.5113 8.09002C20.5113 6.68902 19.5183 5.51902 18.1963 5.24902" stroke="#212121" stroke-width="1.5" stroke-linecap="round" stroke-linejoin="round"/>
<path d="M18.9434 14.0449C20.6974 14.0449 22.1954 15.2339 22.1954 16.2959C22.1954 16.9209 21.6784 17.6019 20.8944 17.7859" stroke="#212121" stroke-width="1.5" stroke-linecap="round" stroke-linejoin="round"/>
<path d="M5.58359 10.892C4.34559 10.561 3.43359 9.43302 3.43359 8.09002C3.43359 6.68902 4.42759 5.51902 5.74859 5.24902" stroke="#212121" stroke-width="1.5" stroke-linecap="round" stroke-linejoin="round"/>
<path d="M5.002 14.0449C3.248 14.0449 1.75 15.2339 1.75 16.2959C1.75 16.9209 2.267 17.6019 3.052 17.7859" stroke="#212121" stroke-width="1.5" stroke-linecap="round" stroke-linejoin="round"/>
</svg>
