<svg width="21" height="20" viewBox="0 0 21 20" fill="none" xmlns="http://www.w3.org/2000/svg">
<path fill-rule="evenodd" clip-rule="evenodd" d="M9.52919 10.0055L9.53046 10.3006C9.5406 11.471 9.61115 12.5152 9.73283 13.177C9.73283 13.1889 9.86555 13.8452 9.9501 14.0637C10.0828 14.3795 10.3228 14.6475 10.6237 14.8173C10.8646 14.9385 11.1174 15 11.3819 15C11.5899 14.9904 11.9328 14.8857 12.1776 14.798L12.381 14.72C13.7282 14.1849 16.3037 12.4362 17.29 11.3668L17.3627 11.2921L17.6873 10.9418C17.8918 10.6738 18 10.3461 18 9.99357C18 9.6778 17.9036 9.36203 17.7109 9.10685C17.6532 9.02417 17.5603 8.91811 17.4776 8.82849L17.1617 8.49782C16.0746 7.39643 13.721 5.85153 12.501 5.33964C12.501 5.32862 11.7428 5.01193 11.3819 5H11.3337C10.7801 5 10.2628 5.31577 9.99828 5.82614C9.92601 5.96567 9.85669 6.23898 9.80396 6.47903L9.70919 6.93226C9.60101 7.6611 9.52919 8.77914 9.52919 10.0055ZM4.25271 8.73472C3.5609 8.73472 3 9.30108 3 9.99963C3 10.6982 3.5609 11.2645 4.25271 11.2645L7.3354 10.9919C7.87812 10.9919 8.31812 10.5486 8.31812 9.99963C8.31812 9.45162 7.87812 9.00734 7.3354 9.00734L4.25271 8.73472Z" fill="white"/>
</svg>
