<svg width="25" height="24" viewBox="0 0 25 24" fill="none" xmlns="http://www.w3.org/2000/svg">
<path fill-rule="evenodd" clip-rule="evenodd" d="M17.3302 7C17.362 6.92913 17.3769 6.85189 17.3738 6.77432H17.3999C17.2881 4.10591 15.0848 2 12.4048 2C9.7249 2 7.52162 4.10591 7.40979 6.77432C7.39661 6.84898 7.39661 6.92535 7.40979 7H7.33161C6.05012 7 4.68025 7.84597 4.28254 10.1201L3.50481 16.3147C2.86848 20.8629 5.21052 22 8.26843 22H16.5584C19.6075 22 21.8788 20.3535 21.3132 16.3147L20.5443 10.1201C20.0759 7.90964 18.7502 7 17.4864 7H17.3302ZM15.8931 7C15.8653 6.92794 15.8505 6.85153 15.8496 6.77432C15.8496 4.85682 14.2898 3.30238 12.3657 3.30238C10.4415 3.30238 8.88174 4.85682 8.88174 6.77432C8.89493 6.84898 8.89493 6.92535 8.88174 7H15.8931ZM9.4969 12.1486C9.0088 12.1486 8.61311 11.7413 8.61311 11.2389C8.61311 10.7366 9.0088 10.3293 9.4969 10.3293C9.985 10.3293 10.3807 10.7366 10.3807 11.2389C10.3807 11.7413 9.985 12.1486 9.4969 12.1486ZM14.4019 11.2389C14.4019 11.7413 14.7976 12.1486 15.2857 12.1486C15.7738 12.1486 16.1695 11.7413 16.1695 11.2389C16.1695 10.7366 15.7738 10.3293 15.2857 10.3293C14.7976 10.3293 14.4019 10.7366 14.4019 11.2389Z" fill="#212121"/>
</svg>
