<svg width="25" height="24" viewBox="0 0 25 24" fill="none" xmlns="http://www.w3.org/2000/svg">
<path fill-rule="evenodd" clip-rule="evenodd" d="M16.9138 21.5H8.56594C5.49958 21.5 3.14718 20.3925 3.81537 15.9348L4.5934 9.89363C5.0053 7.66937 6.42406 6.81812 7.66892 6.81812H17.8474C19.1106 6.81812 20.4469 7.73345 20.9229 9.89363L21.701 15.9348C22.2685 19.8891 19.9801 21.5 16.9138 21.5Z" stroke="#9E9E9E" stroke-width="1.5" stroke-linecap="round" stroke-linejoin="round"/>
<path d="M17.0511 6.59848C17.0511 4.21241 15.1168 2.27812 12.7308 2.27812V2.27812C11.5818 2.27325 10.4782 2.72628 9.66396 3.53703C8.84977 4.34778 8.39208 5.44947 8.39209 6.59848V6.59848" stroke="#9E9E9E" stroke-width="1.5" stroke-linecap="round" stroke-linejoin="round"/>
<path d="M15.6964 11.102H15.6506" stroke="#9E9E9E" stroke-width="1.5" stroke-linecap="round" stroke-linejoin="round"/>
<path d="M9.8658 11.102H9.82004" stroke="#9E9E9E" stroke-width="1.5" stroke-linecap="round" stroke-linejoin="round"/>
</svg>
