<svg width="26" height="20" viewBox="0 0 26 20" fill="none" xmlns="http://www.w3.org/2000/svg">
<path d="M25.787 3.88675C25.8318 4.04915 25.7753 4.22835 25.6806 4.36835L22.6622 8.85955C22.5502 9.03315 22.315 9.12835 22.1185 9.12835C22.0625 9.12835 21.9057 9.11715 21.8446 9.10035L19.4254 8.50675V19.1467C19.4254 19.4715 19.1958 19.7067 18.8654 19.7067H7.10544C6.77504 19.7067 6.54544 19.4715 6.54544 19.1467V8.50675L4.37264 9.10595C4.12064 9.18435 3.90224 9.08355 3.76224 8.86515L0.766235 4.38515C0.671035 4.23955 0.643035 4.07715 0.687835 3.91475C0.727035 3.74675 0.844635 3.63475 0.995835 3.55635L7.10544 0.666748H9.90543C10.2358 0.666748 10.4654 0.896348 10.4654 1.22675C10.4654 2.38035 12.0838 3.19795 13.2374 3.19795C14.391 3.19795 16.0654 2.38595 16.0654 1.22675C16.0654 0.901948 16.295 0.666748 16.6254 0.666748H19.4254L25.4734 3.50035C25.6302 3.57875 25.7422 3.71875 25.787 3.88675V3.88675Z" fill="#212121"/>
</svg>
