<svg width="24" height="24" viewBox="0 0 24 24" fill="none" xmlns="http://www.w3.org/2000/svg">
<path d="M4.79999 5.56625C5.79374 5.56625 6.56624 4.76 6.56624 3.8C6.56624 2.84 5.79374 2 4.79999 2C3.80624 2 3.00036 2.80625 3.00036 3.76625C3.00036 4.72625 3.80624 5.56625 4.79999 5.56625ZM19.1662 5.56625C20.16 5.56625 20.9325 4.76 20.9325 3.8C20.9325 2.84 20.1937 2 19.1662 2C18.1725 2 17.3662 2.80625 17.3662 3.76625C17.3662 4.72625 18.2062 5.56625 19.1662 5.56625ZM22.6312 11.6862L21.9375 8.68138C21.7641 7.93138 21.2392 7.29838 20.5312 6.99837C19.8375 6.69837 19.1025 6.74525 18.4267 7.12025C17.5785 7.622 16.941 8.414 16.6222 9.347L16.2004 10.6175L15.6341 11.0019L15.5662 7.4C15.5662 7.07188 15.2944 6.8 14.9662 6.8H8.99999C8.67186 6.8 8.39999 7.07188 8.39999 7.4V10.9663L7.79549 10.5819L7.37361 9.31138C7.05955 8.37388 6.42186 7.58638 5.56911 7.08463C4.92224 6.70963 4.15799 6.66275 3.46461 6.96275C2.75661 7.26275 2.23161 7.89575 2.05836 8.64575L1.36949 11.6506C1.19605 12.4006 1.39761 13.1975 1.90836 13.7788L4.43024 16.6243L4.80974 20.0979C4.87499 20.7425 5.39249 21.2 5.99999 21.2C6.04686 21.2 6.08436 21.1953 6.13124 21.1906C6.79199 21.1203 7.26561 20.5299 7.19061 19.8688L6.81561 16.3906C6.75936 15.9031 6.55311 15.4486 6.22986 15.0781L4.60349 13.2406L5.26424 10.6014L5.52209 11.3656C5.67209 11.8344 5.96721 12.2469 6.44084 12.5893L8.35334 13.808C8.5267 13.9158 8.80784 13.9814 9.00021 13.9955H14.9665C15.1587 13.9814 15.4397 13.9158 15.6133 13.808L17.5258 12.5893C17.9991 12.2471 18.2946 11.8393 18.4446 11.3656L18.7024 10.6014L19.3635 13.2406L17.7372 15.0781C17.4137 15.4484 17.2077 15.9031 17.1514 16.3906L16.7764 19.8688C16.7014 20.5295 17.1795 21.1205 17.8358 21.1906C17.9137 21.1963 17.9512 21.2 17.9662 21.2C18.5707 21.2 19.0575 20.7455 19.1569 20.1313L19.5364 16.6576L22.0912 13.8125C22.6012 13.2313 22.8037 12.4362 22.6312 11.6862ZM1.73474 15.4288L0.0847375 19.5538C-0.159012 20.168 0.140988 20.8663 0.755238 21.1149C1.38336 21.3586 2.07224 21.0493 2.31599 20.4444L3.35174 17.852L3.27674 17.1676L1.73474 15.4288ZM23.9137 19.5538L22.2975 15.4288L20.7551 17.168L20.6801 17.8524L21.7159 20.4447C21.87 20.915 22.32 21.2 22.7662 21.2C22.9162 21.2 23.0662 21.1719 23.2114 21.1156C23.8575 20.8663 24.1575 20.1688 23.9137 19.5538Z" fill="#212121"/>
</svg>
