<svg width="29" height="28" viewBox="0 0 29 28" fill="none" xmlns="http://www.w3.org/2000/svg">
<path d="M3.99967 4.66675H9.83301C10.1424 4.66675 10.4392 4.78966 10.658 5.00846C10.8768 5.22725 10.9997 5.524 10.9997 5.83341V22.1667C10.9997 22.4762 10.8768 22.7729 10.658 22.9917C10.4392 23.2105 10.1424 23.3334 9.83301 23.3334H3.99967C3.69026 23.3334 3.39351 23.2105 3.17472 22.9917C2.95592 22.7729 2.83301 22.4762 2.83301 22.1667V5.83341C2.83301 5.524 2.95592 5.22725 3.17472 5.00846C3.39351 4.78966 3.69026 4.66675 3.99967 4.66675V4.66675ZM3.99967 17.5001V19.8334H6.33301V17.5001H3.99967ZM14.4997 8.16675H23.833C24.4518 8.16675 25.0453 8.41258 25.4829 8.85017C25.9205 9.28775 26.1663 9.88124 26.1663 10.5001V17.5001C26.1663 18.1189 25.9205 18.7124 25.4829 19.15C25.0453 19.5876 24.4518 19.8334 23.833 19.8334H14.4997C13.8808 19.8334 13.2873 19.5876 12.8498 19.15C12.4122 18.7124 12.1663 18.1189 12.1663 17.5001V10.5001C12.1663 9.88124 12.4122 9.28775 12.8498 8.85017C13.2873 8.41258 13.8808 8.16675 14.4997 8.16675ZM16.833 21.0001H21.4997C21.8091 21.0001 22.1058 21.123 22.3246 21.3418C22.5434 21.5606 22.6663 21.8573 22.6663 22.1667C22.6663 22.4762 22.5434 22.7729 22.3246 22.9917C22.1058 23.2105 21.8091 23.3334 21.4997 23.3334H16.833C16.5236 23.3334 16.2268 23.2105 16.008 22.9917C15.7893 22.7729 15.6663 22.4762 15.6663 22.1667C15.6663 21.8573 15.7893 21.5606 16.008 21.3418C16.2268 21.123 16.5236 21.0001 16.833 21.0001V21.0001Z" fill="#212121"/>
</svg>
