<svg width="20" height="20" viewBox="0 0 20 20" fill="none" xmlns="http://www.w3.org/2000/svg">
<path opacity="0.4" d="M10.8139 2.5946L12.6693 6.32316C12.806 6.5933 13.0669 6.78089 13.3678 6.82258L17.5354 7.42956C17.7787 7.46374 17.9996 7.59214 18.1488 7.78807C18.2964 7.9815 18.3597 8.22663 18.3239 8.46758C18.2947 8.66769 18.2005 8.85278 18.0563 8.99452L15.0365 11.9218C14.8156 12.1261 14.7156 12.4288 14.7689 12.7247L15.5124 16.8402C15.5916 17.3371 15.2624 17.8057 14.7689 17.8999C14.5655 17.9324 14.3572 17.8982 14.1738 17.8048L10.4563 15.868C10.1804 15.7288 9.85454 15.7288 9.57865 15.868L5.86118 17.8048C5.40442 18.0475 4.83846 17.8824 4.58424 17.4321C4.49005 17.2529 4.45671 17.0486 4.48755 16.8493L5.23105 12.7331C5.28439 12.4379 5.18354 12.1336 4.96349 11.9293L1.94367 9.00369C1.58443 8.65685 1.57359 8.08572 1.9195 7.72637C1.927 7.71887 1.93534 7.71053 1.94367 7.70219C2.08704 7.55629 2.27541 7.46374 2.47879 7.43956L6.64635 6.83175C6.94641 6.78923 7.2073 6.6033 7.34483 6.3315L9.13355 2.5946C9.29275 2.27443 9.62282 2.07517 9.98123 2.0835H10.0929C10.4038 2.12102 10.6747 2.31362 10.8139 2.5946Z" fill="#101010"/>
<path d="M9.99367 15.7642C9.83225 15.7692 9.67499 15.8126 9.53355 15.8901L5.83426 17.8225C5.38162 18.0385 4.83996 17.8709 4.58619 17.4381C4.49217 17.2612 4.45805 17.0586 4.48967 16.8601L5.22853 12.7525C5.27845 12.454 5.17861 12.1504 4.96144 11.9402L1.94027 9.01532C1.58166 8.66419 1.575 8.08789 1.92613 7.72843C1.93112 7.72342 1.93528 7.71925 1.94027 7.71508C2.08339 7.5733 2.2681 7.47989 2.46696 7.4507L6.63802 6.83686C6.94005 6.7985 7.20215 6.61001 7.33527 6.33645L9.14831 2.55252C9.32054 2.24727 9.65087 2.06545 10.0003 2.08463C9.99367 2.33234 9.99367 15.5957 9.99367 15.7642Z" fill="#101010"/>
</svg>
