<svg width="20" height="21" viewBox="0 0 20 21" fill="none" xmlns="http://www.w3.org/2000/svg">
<path fill-rule="evenodd" clip-rule="evenodd" d="M8.16972 13.2106C8.69011 13.5633 9.32434 13.7766 9.99923 13.7766C11.7881 13.7766 13.2436 12.3081 13.2436 10.5032C13.2436 9.82221 13.0321 9.18228 12.6825 8.65721L11.7962 9.55147C11.9426 9.83041 12.0239 10.1586 12.0239 10.5032C12.0239 11.6271 11.1132 12.546 9.99923 12.546C9.65772 12.546 9.33247 12.464 9.05601 12.3163L8.16972 13.2106ZM15.3577 5.95801C16.5367 7.04097 17.5368 8.50132 18.2849 10.257C18.3499 10.4129 18.3499 10.5934 18.2849 10.7411C16.5448 14.8268 13.4468 17.2717 9.99923 17.2717H9.9911C8.42178 17.2717 6.91752 16.7548 5.59214 15.8113L4.0147 17.4029C3.89273 17.526 3.73824 17.5834 3.58375 17.5834C3.42926 17.5834 3.26663 17.526 3.1528 17.4029C2.94952 17.1978 2.91699 16.8696 3.07962 16.6317L3.10401 16.5989L15.13 4.46484L15.13 4.46483C15.1463 4.44843 15.1625 4.43202 15.1706 4.41561L15.1706 4.41561C15.1869 4.3992 15.2032 4.3828 15.2113 4.36639L15.9756 3.59519C16.2196 3.35727 16.6017 3.35727 16.8375 3.59519C17.0815 3.83311 17.0815 4.22692 16.8375 4.46484L15.3577 5.95801ZM6.74896 10.5064C6.74896 10.7197 6.77336 10.933 6.80588 11.1299L3.79735 14.1654C2.98424 13.2138 2.27683 12.0652 1.71578 10.7443C1.65073 10.5966 1.65073 10.4161 1.71578 10.2602C3.45585 6.17452 6.55381 3.73786 9.99329 3.73786H10.0014C11.1642 3.73786 12.2944 4.01681 13.3352 4.54188L10.6194 7.28209C10.4242 7.24928 10.2128 7.22466 10.0014 7.22466C8.20444 7.22466 6.74896 8.69322 6.74896 10.5064Z" fill="#9E9E9E"/>
</svg>
