<svg width="25" height="24" viewBox="0 0 25 24" fill="none" xmlns="http://www.w3.org/2000/svg">
<path d="M9.95702 20.7714V17.7047C9.957 16.9246 10.5929 16.2908 11.3808 16.2856H14.2669C15.0585 16.2856 15.7003 16.9209 15.7003 17.7047V17.7047V20.7809C15.7001 21.4432 16.2341 21.9845 16.9028 22H18.8269C20.7449 22 22.2998 20.4607 22.2998 18.5618V18.5618V9.83784C22.2896 9.09083 21.9353 8.38935 21.3378 7.93303L14.7575 2.6853C13.6047 1.77157 11.966 1.77157 10.8132 2.6853L4.26183 7.94256C3.66206 8.39702 3.30719 9.09967 3.2998 9.84736V18.5618C3.2998 20.4607 4.85468 22 6.77272 22H8.69677C9.38216 22 9.93778 21.4499 9.93778 20.7714V20.7714" stroke="#9E9E9E" stroke-width="1.5" stroke-linecap="round" stroke-linejoin="round"/>
</svg>
