<svg width="24" height="24" viewBox="0 0 24 24" fill="none" xmlns="http://www.w3.org/2000/svg">
<path d="M20.9471 8.30545C20.937 7.54807 20.7952 6.79822 20.5281 6.08945C20.2964 5.4916 19.9426 4.94864 19.4892 4.49528C19.0359 4.04191 18.4929 3.6881 17.8951 3.45645C17.1954 3.1938 16.4562 3.05179 15.7091 3.03645C14.7471 2.99345 14.4421 2.98145 12.0001 2.98145C9.55807 2.98145 9.24507 2.98145 8.29007 3.03645C7.54323 3.0519 6.80442 3.19391 6.10507 3.45645C5.50713 3.68793 4.96409 4.04169 4.5107 4.49508C4.05732 4.94847 3.70356 5.4915 3.47207 6.08945C3.2089 6.78858 3.06719 7.52756 3.05307 8.27445C3.01007 9.23745 2.99707 9.54245 2.99707 11.9844C2.99707 14.4264 2.99707 14.7384 3.05307 15.6944C3.06807 16.4424 3.20907 17.1804 3.47207 17.8814C3.70395 18.4792 4.05797 19.022 4.51151 19.4752C4.96505 19.9284 5.50813 20.282 6.10607 20.5134C6.8035 20.7866 7.54244 20.9388 8.29107 20.9634C9.25407 21.0064 9.55907 21.0194 12.0011 21.0194C14.4431 21.0194 14.7561 21.0194 15.7111 20.9634C16.4582 20.9487 17.1974 20.807 17.8971 20.5444C18.4948 20.3125 19.0376 19.9586 19.4909 19.5053C19.9442 19.052 20.2982 18.5091 20.5301 17.9114C20.7931 17.2114 20.9341 16.4734 20.9491 15.7244C20.9921 14.7624 21.0051 14.4574 21.0051 12.0144C21.0031 9.57245 21.0031 9.26245 20.9471 8.30545ZM11.9941 16.6024C9.44007 16.6024 7.37107 14.5334 7.37107 11.9794C7.37107 9.42545 9.44007 7.35645 11.9941 7.35645C13.2202 7.35645 14.396 7.84351 15.263 8.71049C16.13 9.57747 16.6171 10.7533 16.6171 11.9794C16.6171 13.2055 16.13 14.3814 15.263 15.2484C14.396 16.1154 13.2202 16.6024 11.9941 16.6024ZM16.8011 8.26344C16.6595 8.26358 16.5192 8.23578 16.3884 8.18166C16.2575 8.12753 16.1386 8.04813 16.0385 7.948C15.9384 7.84787 15.859 7.72898 15.8049 7.59813C15.7507 7.46729 15.7229 7.32705 15.7231 7.18545C15.7231 7.04395 15.7509 6.90383 15.8051 6.7731C15.8592 6.64238 15.9386 6.52359 16.0387 6.42354C16.1387 6.32348 16.2575 6.24411 16.3882 6.18997C16.519 6.13582 16.6591 6.10795 16.8006 6.10795C16.9421 6.10795 17.0822 6.13582 17.2129 6.18997C17.3436 6.24411 17.4624 6.32348 17.5625 6.42354C17.6625 6.52359 17.7419 6.64238 17.7961 6.7731C17.8502 6.90383 17.8781 7.04395 17.8781 7.18545C17.8781 7.78145 17.3961 8.26344 16.8011 8.26344Z" fill="#101010"/>
<path d="M11.9942 14.9816C13.6527 14.9816 14.9972 13.6371 14.9972 11.9786C14.9972 10.3201 13.6527 8.97559 11.9942 8.97559C10.3357 8.97559 8.99121 10.3201 8.99121 11.9786C8.99121 13.6371 10.3357 14.9816 11.9942 14.9816Z" fill="#101010"/>
</svg>
