<svg width="29" height="28" viewBox="0 0 29 28" fill="none" xmlns="http://www.w3.org/2000/svg">
<path d="M26.8979 10.0307L26.8906 9.97416C26.8773 9.90338 26.8533 9.83502 26.8195 9.77144L23.2713 4.06C23.2713 4.06 22.8188 3.5 22.7113 3.5H7.59132L3.04412 9.57768L2.99036 9.63368L2.98308 9.66C2.94467 9.72171 2.91312 9.78743 2.889 9.856L2.87052 9.91032C2.81813 10.0842 2.82067 10.27 2.8778 10.4423L2.89908 10.5034C2.92764 10.5756 2.96292 10.6417 3.00436 10.7005L13.9977 24.626L14.0201 24.6579C14.0767 24.7307 14.1456 24.7951 14.2296 24.8539L14.2934 24.8937C14.3561 24.9329 14.4216 24.9642 14.5168 24.999L14.579 25.0197C14.6865 25.0471 14.78 25.06 14.8713 25.06C14.9637 25.06 15.0539 25.0477 15.1754 25.0163L15.2499 24.99C15.3227 24.9642 15.3882 24.9323 15.4672 24.8836L15.5164 24.8528C15.601 24.7929 15.6688 24.7279 15.7063 24.677L26.7136 10.7369C26.811 10.607 26.8745 10.455 26.8984 10.2945L26.9068 10.2222L26.9113 10.1651L26.8979 10.0307V10.0307ZM20.9955 9.66L22.5624 6.82472L24.1281 9.66H20.9955ZM20.0558 11.34H23.7731L17.5772 19.1884L20.0558 11.34ZM19.1363 8.80992L16.8733 5.74H20.8325L19.1363 8.80992ZM11.8876 11.34H17.8567L14.8713 20.7911L11.8876 11.34ZM12.4796 9.66L14.8713 6.41424L17.2631 9.66H12.4796ZM10.7951 8.55568L9.75796 5.74H12.8699L10.7951 8.55568V8.55568ZM12.1665 19.189L5.97012 11.34H9.68796L12.1665 19.189ZM7.96372 6.84432L9.0014 9.66H5.88892L7.96372 6.84432V6.84432Z" fill="#212121"/>
</svg>
