<svg width="29" height="28" viewBox="0 0 29 28" fill="none" xmlns="http://www.w3.org/2000/svg">
<path d="M7.67626 15.7499C7.1396 15.7499 6.74293 15.2599 6.84793 14.7349C6.8946 14.5249 6.91793 14.2799 6.91793 13.9999C6.91793 12.8333 5.75126 10.6749 5.75126 9.77659C5.75126 9.43825 5.78626 9.08825 5.9496 8.69158C6.01253 8.536 6.12063 8.40284 6.25995 8.30926C6.39927 8.21569 6.56343 8.16599 6.73126 8.16659C7.25626 8.16659 7.6646 8.65659 7.5596 9.16992C7.51293 9.37992 7.50126 9.57825 7.50126 9.77659C7.50126 10.6749 8.66793 12.8333 8.66793 13.9999C8.66793 14.4899 8.5746 14.8866 8.4696 15.1783C8.35293 15.5283 8.03793 15.7499 7.67626 15.7499ZM15.2596 15.7499C15.6213 15.7499 15.9363 15.5283 16.0529 15.1783C16.1579 14.8866 16.2513 14.4899 16.2513 13.9999C16.2513 12.8333 15.0846 10.6749 15.0846 9.77659C15.0846 9.57825 15.0963 9.37992 15.1313 9.18158C15.1566 9.05964 15.1546 8.9336 15.1254 8.81251C15.0963 8.69143 15.0407 8.5783 14.9626 8.48126C14.8845 8.38423 14.7859 8.30568 14.6739 8.25127C14.5618 8.19687 14.4391 8.16794 14.3146 8.16659C14.1471 8.16754 13.9836 8.21786 13.8446 8.31124C13.7056 8.40461 13.5972 8.53691 13.5329 8.69158C13.3696 9.08825 13.3346 9.42659 13.3346 9.77659C13.3346 10.6749 14.5013 12.8333 14.5013 13.9999C14.5013 14.2799 14.4779 14.5249 14.4313 14.7349C14.3263 15.2599 14.7229 15.7499 15.2596 15.7499V15.7499ZM11.4679 15.7499C11.8296 15.7499 12.1446 15.5283 12.2613 15.1783C12.3663 14.8866 12.4596 14.4899 12.4596 13.9999C12.4596 12.8333 11.2929 10.6749 11.2929 9.77659C11.2929 9.57825 11.3046 9.37992 11.3396 9.18158C11.3649 9.05964 11.3629 8.9336 11.3338 8.81251C11.3046 8.69143 11.249 8.5783 11.1709 8.48126C11.0928 8.38423 10.9942 8.30568 10.8822 8.25127C10.7702 8.19687 10.6475 8.16794 10.5229 8.16659C10.1729 8.16659 9.8696 8.37658 9.74126 8.69158C9.57793 9.08825 9.54293 9.42659 9.54293 9.77659C9.54293 10.6749 10.7096 12.8449 10.7096 13.9999C10.7096 14.2799 10.6863 14.5249 10.6396 14.7349C10.5346 15.2599 10.9313 15.7499 11.4679 15.7499V15.7499ZM24.3713 7.43158C24.5276 7.45253 24.6865 7.44128 24.8383 7.39853C24.9901 7.35578 25.1315 7.28242 25.2539 7.18298C25.3763 7.08354 25.477 6.96011 25.55 6.82028C25.6229 6.68046 25.6664 6.5272 25.6779 6.36992C25.6896 6.15992 25.7013 5.97325 25.7013 5.83325C25.7013 3.90825 24.1263 2.33325 22.2013 2.33325C20.4046 2.33325 18.9229 3.68659 18.7246 5.42492L17.4529 17.4999H5.15626C4.45626 17.4999 3.90793 18.1299 4.01293 18.8299C4.63126 22.7033 7.95626 25.6666 11.8763 25.6666C15.9363 25.6666 19.2729 22.4816 19.7046 18.3983L21.0463 5.71659C21.1046 5.12159 21.5946 4.66659 22.2013 4.66659C22.8429 4.66659 23.3679 5.19159 23.3679 5.83325C23.3679 5.91492 23.3563 6.04325 23.3563 6.19492C23.3096 6.81325 23.7529 7.34992 24.3713 7.43158V7.43158Z" fill="#212121"/>
</svg>
