<svg width="20" height="21" viewBox="0 0 20 21" fill="none" xmlns="http://www.w3.org/2000/svg">
<path fill-rule="evenodd" clip-rule="evenodd" d="M14.6026 6.66342V7.9412C16.0379 8.38921 17.0837 9.68853 17.0837 11.2404V15.3545C17.0837 17.2757 15.4909 18.8334 13.5272 18.8334H6.47432C4.50979 18.8334 2.91699 17.2757 2.91699 15.3545V11.2404C2.91699 9.68853 3.96362 8.38921 5.39806 7.9412V6.66342C5.40653 4.17907 7.46421 2.16675 9.98763 2.16675C12.5449 2.16675 14.6026 4.17907 14.6026 6.66342ZM10.0046 3.61595C11.7235 3.61595 13.1207 4.98234 13.1207 6.66342V7.7615H6.87993V6.64686C6.8884 4.97406 8.28559 3.61595 10.0046 3.61595ZM10.7413 14.2125C10.7413 14.6183 10.411 14.9413 9.99609 14.9413C9.58964 14.9413 9.25939 14.6183 9.25939 14.2125V12.3741C9.25939 11.9766 9.58964 11.6536 9.99609 11.6536C10.411 11.6536 10.7413 11.9766 10.7413 12.3741V14.2125Z" fill="#9E9E9E"/>
</svg>
