<svg width="24" height="24" viewBox="0 0 24 24" fill="none" xmlns="http://www.w3.org/2000/svg">
<path d="M4.97654 2.14549C-0.226744 5.64355 -1.7529 13.4081 2.33963 19.0092C6.5903 24.8275 14.4382 25.0686 18.9286 21.6714C22.7835 18.7558 24.9605 13.7466 23.5865 8.82107C23.5865 8.82107 24.9789 16.5762 17.3469 19.4558C14.4155 20.5615 8.64854 19.6383 6.50013 15.0167C4.6808 11.102 5.69965 7.38722 8.67289 5.55251C10.4435 4.46014 13.2693 4.82212 14.7185 6.21151C17.2541 8.64199 16.4887 12.1693 15.1412 13.5111C13.4623 15.1829 11.3788 14.7021 11.3788 14.7021C11.3788 14.7021 17.1869 17.7472 19.5786 11.8516C21.9343 6.04485 17.3311 0.118013 11.1854 0.118013C9.2148 0.118013 7.08563 0.727459 4.97654 2.14549Z" fill="#101010"/>
</svg>
