<svg width="20" height="21" viewBox="0 0 20 21" fill="none" xmlns="http://www.w3.org/2000/svg">
<path fill-rule="evenodd" clip-rule="evenodd" d="M14.1162 3C15.2337 3 16.3087 3.44167 17.0995 4.23417C17.8912 5.025 18.3337 6.09167 18.3337 7.20833V13.7917C18.3337 16.1167 16.442 18 14.1162 18H5.88366C3.55783 18 1.66699 16.1167 1.66699 13.7917V7.20833C1.66699 4.88333 3.54949 3 5.88366 3H14.1162ZM15.442 8.45L15.5087 8.38333C15.7078 8.14167 15.7078 7.79167 15.4995 7.55C15.3837 7.42583 15.2245 7.35 15.0587 7.33333C14.8837 7.32417 14.717 7.38333 14.5912 7.5L10.8337 10.5C10.3503 10.9008 9.65783 10.9008 9.16699 10.5L5.41699 7.5C5.15783 7.30833 4.79949 7.33333 4.58366 7.55833C4.35866 7.78333 4.33366 8.14167 4.52449 8.39167L4.63366 8.5L8.42533 11.4583C8.89199 11.825 9.45783 12.025 10.0503 12.025C10.6412 12.025 11.217 11.825 11.6828 11.4583L15.442 8.45Z" fill="#9E9E9E"/>
</svg>
