<svg width="250" height="244" viewBox="0 0 250 244" fill="none" xmlns="http://www.w3.org/2000/svg">
<g clip-path="url(#clip0_1336_24542)">
<path d="M158.71 54.8748H91.3459C89.8108 54.8767 88.3391 55.4873 87.2537 56.5726C86.1682 57.658 85.5575 59.1295 85.5557 60.6644V210.363L84.7836 210.598L68.2581 215.658C67.4749 215.897 66.629 215.815 65.906 215.431C65.183 215.047 64.6421 214.391 64.4019 213.609L15.2461 53.0646C15.0069 52.2815 15.0884 51.4355 15.4728 50.7125C15.8571 49.9895 16.5129 49.4486 17.2959 49.2088L42.7616 41.4122L116.588 18.8175L142.053 11.0209C142.441 10.9017 142.848 10.86 143.252 10.8983C143.656 10.9366 144.048 11.0541 144.406 11.2441C144.764 11.4341 145.081 11.6929 145.339 12.0056C145.597 12.3183 145.791 12.6789 145.91 13.0666L158.475 54.1029L158.71 54.8748Z" fill="#F2F2F2"/>
<path d="M173.41 54.1022L158.266 4.64399C158.014 3.81993 157.602 3.05358 157.054 2.38874C156.506 1.72389 155.832 1.17359 155.071 0.769273C154.31 0.364953 153.476 0.114537 152.618 0.0323456C151.761 -0.0498462 150.895 0.0377962 150.071 0.290256L114.268 11.2479L40.4454 33.8465L4.64215 44.808C2.97892 45.3187 1.58627 46.4683 0.769893 48.0046C-0.0464832 49.5408 -0.219893 51.3382 0.287735 53.0022L52.0452 222.03C52.4576 223.373 53.2897 224.549 54.4193 225.384C55.549 226.22 56.9168 226.672 58.322 226.673C58.9724 226.673 59.6191 226.576 60.2404 226.384L84.7835 218.873L85.5556 218.633V217.827L84.7835 218.062L60.0127 225.646C58.5446 226.094 56.9589 225.941 55.6035 225.221C54.2481 224.501 53.2336 223.273 52.7826 221.806L1.02905 52.7744C0.805579 52.0476 0.727694 51.2839 0.799851 50.5269C0.872008 49.77 1.09278 49.0347 1.44955 48.3632C1.80632 47.6916 2.29207 47.0971 2.87897 46.6136C3.46587 46.13 4.1424 45.767 4.86983 45.5452L40.6731 34.5837L114.495 11.989L150.299 1.02747C150.851 0.859105 151.424 0.773261 152.001 0.772724C153.239 0.775503 154.444 1.17458 155.438 1.9115C156.433 2.64842 157.166 3.68446 157.529 4.86786L172.603 54.1022L172.842 54.8741H173.645L173.41 54.1022Z" fill="#3F3D56"/>
<path d="M47.3567 49.335C46.6127 49.3345 45.8884 49.0955 45.2902 48.6533C44.6919 48.211 44.2512 47.5887 44.0326 46.8776L39.0605 30.6392C38.9269 30.203 38.8805 29.7448 38.9241 29.2907C38.9676 28.8366 39.1002 28.3955 39.3142 27.9926C39.5283 27.5897 39.8196 27.233 40.1715 26.9427C40.5235 26.6524 40.9292 26.4343 41.3655 26.3008L109.281 5.51102C110.162 5.2422 111.114 5.33388 111.928 5.76594C112.741 6.19799 113.35 6.93511 113.62 7.81553L118.593 24.0542C118.861 24.9351 118.769 25.8866 118.337 26.7C117.905 27.5133 117.168 28.1221 116.288 28.3927L48.3717 49.1825C48.0428 49.2834 47.7007 49.3348 47.3567 49.335Z" fill="#101010"/>
<path d="M73.403 17.3511C77.6669 17.3511 81.1234 13.8951 81.1234 9.63175C81.1234 5.36844 77.6669 1.91235 73.403 1.91235C69.1392 1.91235 65.6826 5.36844 65.6826 9.63175C65.6826 13.8951 69.1392 17.3511 73.403 17.3511Z" fill="#101010"/>
<path d="M73.4025 14.52C76.1025 14.52 78.2912 12.3315 78.2912 9.63181C78.2912 6.93216 76.1025 4.74365 73.4025 4.74365C70.7025 4.74365 68.5137 6.93216 68.5137 9.63181C68.5137 12.3315 70.7025 14.52 73.4025 14.52Z" fill="white"/>
<path d="M232.63 224.702H102.155C101.285 224.701 100.451 224.355 99.8361 223.74C99.221 223.124 98.875 222.291 98.874 221.421V65.103C98.875 64.2332 99.221 63.3993 99.8361 62.7842C100.451 62.1692 101.285 61.8232 102.155 61.8223H232.63C233.5 61.8233 234.334 62.1692 234.949 62.7843C235.564 63.3993 235.91 64.2332 235.911 65.103V221.421C235.91 222.291 235.564 223.124 234.949 223.739C234.334 224.355 233.5 224.701 232.63 224.702Z" fill="#E6E6E6"/>
<path d="M172.604 54.1028H91.3465C89.6068 54.1052 87.9391 54.7973 86.709 56.0273C85.4788 57.2573 84.7866 58.9248 84.7842 60.6643V218.063L85.5562 217.827V60.6643C85.5581 59.1294 86.1687 57.6579 87.2542 56.5725C88.3397 55.4872 89.8114 54.8766 91.3465 54.8747H172.843L172.604 54.1028ZM243.438 54.1028H91.3465C89.6068 54.1052 87.9391 54.7973 86.709 56.0273C85.4788 57.2573 84.7866 58.9248 84.7842 60.6643V237.438C84.7866 239.178 85.4788 240.845 86.709 242.075C87.9391 243.305 89.6068 243.997 91.3465 244H243.438C245.178 243.997 246.845 243.305 248.076 242.075C249.306 240.845 249.998 239.178 250 237.438V60.6643C249.998 58.9248 249.306 57.2573 248.076 56.0273C246.845 54.7973 245.178 54.1052 243.438 54.1028ZM249.228 237.438C249.226 238.973 248.616 240.445 247.53 241.53C246.445 242.616 244.973 243.226 243.438 243.228H91.3465C89.8114 243.226 88.3397 242.616 87.2542 241.53C86.1687 240.445 85.5581 238.973 85.5562 237.438V60.6643C85.5581 59.1294 86.1687 57.6579 87.2542 56.5725C88.3397 55.4872 89.8114 54.8766 91.3465 54.8747H243.438C244.973 54.8766 246.445 55.4872 247.53 56.5725C248.616 57.6579 249.226 59.1294 249.228 60.6643V237.438Z" fill="#3F3D56"/>
<path d="M202.906 71.0856H131.878C130.957 71.0846 130.074 70.7183 129.423 70.0671C128.772 69.4158 128.405 68.5329 128.404 67.6119V50.6292C128.405 49.7083 128.772 48.8253 129.423 48.1741C130.074 47.5229 130.957 47.1566 131.878 47.1555H202.906C203.827 47.1566 204.71 47.5229 205.361 48.1741C206.013 48.8253 206.379 49.7083 206.38 50.6292V67.6119C206.379 68.5329 206.013 69.4158 205.361 70.0671C204.71 70.7183 203.827 71.0846 202.906 71.0856Z" fill="#101010"/>
<path d="M167.392 48.3133C171.656 48.3133 175.113 44.8572 175.113 40.5939C175.113 36.3306 171.656 32.8745 167.392 32.8745C163.128 32.8745 159.672 36.3306 159.672 40.5939C159.672 44.8572 163.128 48.3133 167.392 48.3133Z" fill="#101010"/>
<path d="M167.392 45.2958C169.989 45.2958 172.094 43.1907 172.094 40.5939C172.094 37.9972 169.989 35.8921 167.392 35.8921C164.795 35.8921 162.689 37.9972 162.689 40.5939C162.689 43.1907 164.795 45.2958 167.392 45.2958Z" fill="white"/>
</g>
<defs>
<clipPath id="clip0_1336_24542">
<rect width="250" height="244" fill="white"/>
</clipPath>
</defs>
</svg>
