<svg width="29" height="28" viewBox="0 0 29 28" fill="none" xmlns="http://www.w3.org/2000/svg">
<path d="M18.6997 13.3005C17.8348 12.7783 17.0138 12.1864 16.245 11.5309L12.185 6.24639C12.0589 6.07969 11.8855 5.9548 11.6875 5.88795C11.4894 5.8211 11.2758 5.81539 11.0744 5.87157C10.8731 5.92775 10.6933 6.04321 10.5585 6.20294C10.4236 6.36267 10.3399 6.55927 10.3183 6.76719H10.2997V9.56719H6.95647C6.83262 9.56766 6.70991 9.54348 6.5955 9.49605C6.48109 9.44862 6.37727 9.37889 6.29007 9.29093C6.29007 9.29093 5.63301 7.70053 4.69967 7.70053H3.76634C3.51881 7.70053 3.28141 7.79886 3.10637 7.97389C2.93134 8.14893 2.83301 8.38633 2.83301 8.63386V17.0339H13.0997C15.8997 17.0339 16.833 18.9005 19.633 18.9005H27.0997V17.9672C27.0997 15.1672 20.6541 14.4093 18.6997 13.3005ZM18.6997 20.7672C17.6942 20.7388 16.713 20.4514 15.8511 19.9328C14.7301 19.2822 13.4622 18.927 12.1663 18.9005H2.83301V21.7005C2.83301 21.9481 2.93134 22.1855 3.10637 22.3605C3.28141 22.5355 3.51881 22.6339 3.76634 22.6339H11.233C11.4805 22.6339 11.7179 22.5355 11.893 22.3605C12.068 22.1855 12.1663 21.9481 12.1663 21.7005V20.7672C13.1718 20.7958 14.1529 21.0832 15.0149 21.6016C16.1359 22.2522 17.4038 22.6073 18.6997 22.6339H26.1663C26.4139 22.6339 26.6513 22.5355 26.8263 22.3605C27.0013 22.1855 27.0997 21.9481 27.0997 21.7005V20.7672H18.6997Z" fill="#212121"/>
</svg>
