<svg width="29" height="28" viewBox="0 0 29 28" fill="none" xmlns="http://www.w3.org/2000/svg">
<path d="M5.16699 17.4999C4.19477 17.4999 3.36838 17.1596 2.68783 16.4791C2.00727 15.7985 1.66699 14.9721 1.66699 13.9999C1.66699 13.0277 2.00727 12.2013 2.68783 11.5208C3.36838 10.8402 4.19477 10.4999 5.16699 10.4999V8.16659C5.16699 7.52492 5.39566 6.97581 5.85299 6.51925C6.30955 6.06192 6.85866 5.83325 7.50033 5.83325H11.0003C11.0003 4.86103 11.3406 4.03464 12.0212 3.35409C12.7017 2.67353 13.5281 2.33325 14.5003 2.33325C15.4725 2.33325 16.2989 2.67353 16.9795 3.35409C17.66 4.03464 18.0003 4.86103 18.0003 5.83325H21.5003C22.142 5.83325 22.6915 6.06192 23.1488 6.51925C23.6054 6.97581 23.8337 7.52492 23.8337 8.16659V10.4999C24.8059 10.4999 25.6323 10.8402 26.3128 11.5208C26.9934 12.2013 27.3337 13.0277 27.3337 13.9999C27.3337 14.9721 26.9934 15.7985 26.3128 16.4791C25.6323 17.1596 24.8059 17.4999 23.8337 17.4999V22.1666C23.8337 22.8083 23.6054 23.3578 23.1488 23.8151C22.6915 24.2716 22.142 24.4999 21.5003 24.4999H7.50033C6.85866 24.4999 6.30955 24.2716 5.85299 23.8151C5.39566 23.3578 5.16699 22.8083 5.16699 22.1666V17.4999ZM11.0003 15.1666C11.4864 15.1666 11.8994 14.9963 12.2393 14.6556C12.58 14.3157 12.7503 13.9027 12.7503 13.4166C12.7503 12.9305 12.58 12.5175 12.2393 12.1776C11.8994 11.8369 11.4864 11.6666 11.0003 11.6666C10.5142 11.6666 10.1012 11.8369 9.76133 12.1776C9.42066 12.5175 9.25033 12.9305 9.25033 13.4166C9.25033 13.9027 9.42066 14.3157 9.76133 14.6556C10.1012 14.9963 10.5142 15.1666 11.0003 15.1666ZM18.0003 15.1666C18.4864 15.1666 18.8994 14.9963 19.2393 14.6556C19.58 14.3157 19.7503 13.9027 19.7503 13.4166C19.7503 12.9305 19.58 12.5175 19.2393 12.1776C18.8994 11.8369 18.4864 11.6666 18.0003 11.6666C17.5142 11.6666 17.1012 11.8369 16.7613 12.1776C16.4207 12.5175 16.2503 12.9305 16.2503 13.4166C16.2503 13.9027 16.4207 14.3157 16.7613 14.6556C17.1012 14.9963 17.5142 15.1666 18.0003 15.1666ZM11.0003 19.8333H18.0003C18.3309 19.8333 18.6082 19.7213 18.8322 19.4973C19.0554 19.274 19.167 18.9971 19.167 18.6666C19.167 18.336 19.0554 18.0588 18.8322 17.8348C18.6082 17.6115 18.3309 17.4999 18.0003 17.4999H11.0003C10.6698 17.4999 10.3929 17.6115 10.1697 17.8348C9.94566 18.0588 9.83366 18.336 9.83366 18.6666C9.83366 18.9971 9.94566 19.274 10.1697 19.4973C10.3929 19.7213 10.6698 19.8333 11.0003 19.8333Z" fill="#212121"/>
</svg>
