<svg width="24" height="24" viewBox="0 0 24 24" fill="none" xmlns="http://www.w3.org/2000/svg">
<path d="M19.633 7.99656C19.646 8.17156 19.646 8.34556 19.646 8.51956C19.646 13.8446 15.593 19.9806 8.186 19.9806C5.904 19.9806 3.784 19.3196 2 18.1716C2.324 18.2086 2.636 18.2216 2.973 18.2216C4.78599 18.2259 6.54765 17.6197 7.974 16.5006C7.13342 16.4853 6.31858 16.208 5.64324 15.7073C4.9679 15.2066 4.46578 14.5075 4.207 13.7076C4.456 13.7446 4.706 13.7696 4.968 13.7696C5.329 13.7696 5.692 13.7196 6.029 13.6326C5.11676 13.4484 4.29647 12.9539 3.70762 12.2332C3.11876 11.5126 2.79769 10.6102 2.799 9.67956V9.62956C3.336 9.92856 3.959 10.1156 4.619 10.1406C4.06609 9.77314 3.61272 9.27458 3.29934 8.68935C2.98596 8.10411 2.82231 7.45041 2.823 6.78656C2.823 6.03856 3.022 5.35256 3.371 4.75456C4.38314 5.99958 5.6455 7.01812 7.07634 7.74421C8.50717 8.47031 10.0746 8.88777 11.677 8.96956C11.615 8.66956 11.577 8.35855 11.577 8.04656C11.5767 7.51752 11.6807 6.99361 11.8831 6.5048C12.0854 6.01598 12.3821 5.57183 12.7562 5.19774C13.1303 4.82366 13.5744 4.52697 14.0632 4.32463C14.5521 4.1223 15.076 4.01829 15.605 4.01856C16.765 4.01856 17.812 4.50455 18.548 5.29056C19.4498 5.11617 20.3145 4.78698 21.104 4.31755C20.8034 5.24837 20.1738 6.03766 19.333 6.53756C20.1328 6.44633 20.9144 6.23601 21.652 5.91356C21.1011 6.71665 20.4185 7.4209 19.633 7.99656Z" fill="#101010"/>
</svg>
