<svg width="29" height="28" viewBox="0 0 29 28" fill="none" xmlns="http://www.w3.org/2000/svg">
<path d="M14.208 16.3333H17.708V14.5833H15.083V10.2083H13.333V15.4583L14.208 16.3333Z" fill="#212121"/>
<path fill-rule="evenodd" clip-rule="evenodd" d="M10.708 7.004C9.37738 7.77183 8.27246 8.87659 7.50444 10.2071C6.73641 11.5376 6.33239 13.047 6.33301 14.5833C6.33239 16.1195 6.73641 17.6289 7.50444 18.9594C8.27246 20.2899 9.37738 21.3947 10.708 22.1625V25.9583L11.583 26.8333H18.583L19.458 25.9583V22.1625C20.7886 21.3947 21.8936 20.2899 22.6616 18.9594C23.4296 17.6289 23.8336 16.1195 23.833 14.5833C23.8336 13.047 23.4296 11.5376 22.6616 10.2071C21.8936 8.87659 20.7886 7.77183 19.458 7.004V3.20825L18.583 2.33325H11.583L10.708 3.20825V7.004ZM22.083 14.5833C22.083 16.4398 21.3455 18.2202 20.0328 19.533C18.72 20.8458 16.9395 21.5833 15.083 21.5833C13.2265 21.5833 11.446 20.8458 10.1333 19.533C8.82051 18.2202 8.08301 16.4398 8.08301 14.5833C8.08301 12.7267 8.82051 10.9463 10.1333 9.6335C11.446 8.32075 13.2265 7.58325 15.083 7.58325C16.9395 7.58325 18.72 8.32075 20.0328 9.6335C21.3455 10.9463 22.083 12.7267 22.083 14.5833V14.5833Z" fill="#212121"/>
</svg>
